<?xml version="1.0" encoding="utf-8"?>
<svg width="100%" height="100%" viewBox="0 0 1514 429" version="1.1" xmlns="http://www.w3.org/2000/svg" style="fill-rule:evenodd;clip-rule:evenodd;stroke-linejoin:round;stroke-miterlimit:2;" xmlns:bx="https://boxy-svg.com">
  <g id="Layer-1" transform="matrix(1, 0, 0, 1, -83.948265, 112.075989)">
    <g id="g3185" transform="matrix(1.55573,0,0,1.55573,966.537,5.82449)">
      <g id="path2396" transform="matrix(0.549274,0,0,0.599798,172.081,-10.7691)">
        <path d="M113.719,-64.875L323.688,-64.875C333.522,-64.875 341.438,-56.712 341.438,-46.594L341.438,277.5C341.438,287.618 303.795,295.75 293.96,295.75L83.991,295.75C74.156,295.75 95.969,287.618 95.969,277.5L95.969,-46.594C95.969,-56.712 103.884,-64.875 113.719,-64.875Z" style="fill:rgb(0,255,6);fill-rule:nonzero;stroke:rgb(0,255,6);stroke-width:1.12px;"/>
      </g>
      <g id="path23961" transform="matrix(0.5062,0,0,0.5062,313.685,1.05504)">
        <path d="M-39.249,-57.313C-30.729,-57.418 -21.931,-54.5 -14.624,-48.469C0.966,-35.603 3.886,-13.389 -8.092,1.125C-20.071,15.639 -42.44,16.96 -58.03,4.094C-73.619,-8.772 -76.54,-30.986 -64.561,-45.5C-58.197,-53.211 -48.904,-57.193 -39.249,-57.313ZM-98.436,9.063C-92.989,9.025 -86.903,9.491 -80.905,11.344L-41.561,25.75C-33.274,28.719 -26.519,32.503 -19.999,38.906L22.939,84.563L72.283,86.031C93.99,86.564 97.976,116.184 76.626,122.438C74.079,122.82 57.249,122.929 39.251,122.688C-1.314,122.144 1.193,122.942 -11.999,106.281L-37.405,75.781L-48.999,118.406C-50.66,124.139 -49.647,125.767 -47.936,128.156L-7.686,170.406C-1.538,178.439 -2.398,188.217 -5.342,197.344L-35.499,292.75C-44.391,325.324 -88.193,312.942 -76.342,276.906L-51.592,190.625L-79.03,166.688L-111.28,206.625C-116.92,214.444 -122.981,220.208 -145.749,222.188L-217.874,229.313C-241.31,232.386 -244.496,195.666 -223.717,191.406L-155.842,181.563L-113.217,118.25L-111.03,55.75L-137.967,70.031C-151.225,76.844 -151.268,76.898 -152.561,83.969L-158.749,118.5C-166.099,151.176 -202.155,138.081 -196.311,106.594L-187.717,54.406C-186.319,48.849 -188.145,50.19 -164.967,37.313C-158.642,33.798 -144.576,26.272 -132.311,20.25C-119.949,14.18 -111.593,9.237 -98.436,9.063Z" style="fill-rule:nonzero;stroke:rgb(0,255,6);stroke-width:1.27px;"/>
      </g>
    </g>
    <g transform="matrix(38.566399, 0, 0, 38.566399, -4506.508301, -6670.685547)">
      <text style="fill: url(&quot;#gradient-0&quot;); font-family: RobotoBold; font-size: 3.1px; font-weight: 700; letter-spacing: 1.1px; paint-order: fill; white-space: pre;" x="120.415" y="179.297">EXPERIENCE</text>
      <text style="font-family: RobotoBold; font-size: 5.6px; font-weight: 700; letter-spacing: 0.5px; paint-order: fill; white-space: pre; fill: url(&quot;#gradient-2&quot;);" x="120.278" y="176.009">ENTER 3D</text>
    </g>
  </g>
  <defs>
    <linearGradient gradientUnits="userSpaceOnUse" x1="134.827" y1="172.15" x2="134.827" y2="178.812" id="gradient-0" gradientTransform="matrix(0.113877, 0.525953, -1.1766, 0.254752, 315.661456, 61.684837)">
      <stop offset="0" style="stop-color: rgb(0.78431% 100% 3.9216%)"/>
      <stop offset="1" style="stop-color: rgb(0% 57.709% 4.0346%)"/>
    </linearGradient>
    <linearGradient gradientUnits="userSpaceOnUse" x1="134.827" y1="172.15" x2="134.827" y2="178.812" id="gradient-2" gradientTransform="matrix(0.206721, 0.954766, -2.135889, 0.462452, 474.709363, -37.492433)">
      <stop offset="0" style="stop-color: rgb(0.78431% 100% 3.9216%)"/>
      <stop offset="1" style="stop-color: rgb(0% 57.709% 4.0346%)"/>
    </linearGradient>
    <bx:export>
      <bx:file format="svg"/>
    </bx:export>
  </defs>
</svg>
